<?xml version="1.0" encoding="UTF-8" standalone="no"?>
<!-- Created with Inkscape (http://www.inkscape.org/) -->

<svg
   xmlns:dc="http://purl.org/dc/elements/1.1/"
   xmlns:cc="http://creativecommons.org/ns#"
   xmlns:rdf="http://www.w3.org/1999/02/22-rdf-syntax-ns#"
   xmlns:svg="http://www.w3.org/2000/svg"
   xmlns="http://www.w3.org/2000/svg"
   xmlns:sodipodi="http://sodipodi.sourceforge.net/DTD/sodipodi-0.dtd"
   xmlns:inkscape="http://www.inkscape.org/namespaces/inkscape"
   width="78.498322mm"
   height="14.986692mm"
   viewBox="0 0 278.14366 53.102453"
   id="svg6419"
   version="1.1"
   inkscape:version="0.91 r13725"
   sodipodi:docname="WinterDawnName.svg">
  <defs
     id="defs6421" />
  <sodipodi:namedview
     id="base"
     pagecolor="#ffffff"
     bordercolor="#666666"
     borderopacity="1.0"
     inkscape:pageopacity="0.0"
     inkscape:pageshadow="2"
     inkscape:zoom="1.4"
     inkscape:cx="51.463771"
     inkscape:cy="-16.660291"
     inkscape:document-units="px"
     inkscape:current-layer="layer1"
     showgrid="false"
     fit-margin-top="0"
     fit-margin-left="0"
     fit-margin-right="0"
     fit-margin-bottom="0"
     inkscape:window-width="1440"
     inkscape:window-height="853"
     inkscape:window-x="0"
     inkscape:window-y="0"
     inkscape:window-maximized="1" />
  <metadata
     id="metadata6424">
    <rdf:RDF>
      <cc:Work
         rdf:about="">
        <dc:format>image/svg+xml</dc:format>
        <dc:type
           rdf:resource="http://purl.org/dc/dcmitype/StillImage" />
        <dc:title />
      </cc:Work>
    </rdf:RDF>
  </metadata>
  <g
     inkscape:label="Layer 1"
     inkscape:groupmode="layer"
     id="layer1"
     transform="translate(-148.17493,-453.30214)">
    <g
       id="g6993">
      <path
         inkscape:connector-curvature="0"
         id="text5784"
         d="m 381.42991,454.47767 -8.28858,11.60611 c -0.0158,0.009 -0.0405,0.0134 -0.0561,0.023 -0.13965,0.0859 -0.0959,0.11371 -0.21784,0.19633 -0.64068,-0.43787 -1.31992,-0.87549 -2.04465,-1.10897 -1.777,-0.57248 -2.78118,-0.47047 -3.12952,-0.47047 -3.26422,0 -3.12157,0.43182 -2.93325,0.39619 l -0.12724,0.0248 -0.12941,0.0283 c -0.41818,0.0915 -1.57538,0.23044 -3.06913,0.42802 l -2.45228,0.32367 -3.85204,-1.35305 -4.81182,0.45279 c -0.89382,-0.15919 -1.79389,-0.30068 -2.62914,-0.30068 -5.26197,0 -9.09145,2.0166 -12.11258,4.50661 -0.83963,-2.94469 -2.59833,-5.6759 -5.29063,-7.63541 -3.82994,-2.78751 -8.81262,-3.89995 -13.75175,-3.89995 l -19.02513,0 0,6.41679 0,1.71915 c -1.47216,-0.65165 -3.05408,-1.10719 -4.60908,-1.10719 -1.0485,0 -1.89203,0.11774 -2.69599,0.25823 l -1.10428,-0.60312 -14.95525,2.1348 c -2.20568,-1.28032 -4.64946,-1.78991 -6.76587,-1.78991 -3.66376,0 -6.84971,0.9784 -9.60855,2.40718 l 0.37744,-1.97562 -4.2532,0 c -0.42033,-0.76529 -0.93563,-1.53961 -1.75564,-2.15603 -1.88921,-1.42014 -4.13682,-1.75807 -5.56238,-1.75807 -4.07454,0 -5.57907,1.31521 -7.07646,3.1571 -0.128,0.15746 -0.68497,0.66508 -1.13879,0.96393 -0.45382,0.29886 -1.39674,0.33159 0.59959,-0.0265 l 0.0776,-0.0124 c -1.21179,0.20702 -2.66349,0.50877 -4.35888,1.63426 -0.30223,0.20063 -0.51509,0.59567 -0.79802,0.86842 -0.21398,-0.21697 -0.28485,-0.48354 -0.53273,-0.68448 -2.13308,-1.72913 -5.08307,-2.41779 -7.46899,-2.41779 -1.26852,0 -2.46948,0.22827 -3.6299,0.53945 l -2.09209,-0.85782 -2.65934,0.45279 c -1.76513,0.30043 -3.17175,0.49204 -5.78669,0.90734 -0.0803,-4.29672 -3.76669,-8.10412 -9.81559,-8.10412 -1.17008,0 -2.26428,0.28421 -3.30637,0.65265 l 0,-0.61904 -7.82702,0 -4.38478,0 -10.87889,0 -1.17115,0 -13.14353,0 -12.00906,0 0,12.61249 3.37324,0.34489 3.20285,22.12625 3.43361,0 1.35232,10.18408 6.13826,-10.18408 0.98564,0 0.68803,0 2.75639,0 1.17545,9.93823 6.24178,-9.93823 1.71249,0 7.89821,-12.48161 c -0.41357,1.26907 -0.73548,2.39762 -0.73548,4.00783 0,1.53846 0.39506,3.72603 2.47169,5.63858 2.07664,1.91254 5.24528,2.60173 7.33528,2.60173 1.19565,0 2.53984,-0.25972 3.82832,-0.63142 l -0.0906,0.26707 19.12864,0 0.16392,-0.45102 c 1.33471,0.47333 2.69237,0.74993 3.90597,0.74993 2.06021,0 5.4546,-0.83675 7.4237,-2.13834 0.50643,-0.33475 0.85117,-0.68273 1.26388,-1.02053 0.49785,0.57558 0.91004,1.23154 1.5529,1.62895 2.18202,1.34892 4.34461,1.59536 6.04982,1.59536 2.50604,0 5.89064,-1.01229 7.87879,-2.41779 0.79171,-0.5597 1.38068,-1.13019 1.967,-1.70855 0.30962,0.33235 0.58588,0.68248 0.94898,0.98339 2.53882,2.10398 6.14352,3.14295 9.52012,3.14295 3.53903,0 6.8551,-1.08152 9.68833,-2.6265 l -0.76566,2.26215 19.20199,0 1.66289,-4.5862 c 0.66221,-1.82463 0.97449,-2.54172 1.35447,-3.47193 l 0,8.05813 18.21849,0 c 5.88597,0 11.77096,-1.03564 16.57067,-4.10511 0.87948,-0.55985 1.65974,-1.24954 2.46091,-1.91195 0.52857,1.204 1.30322,2.35678 2.40915,3.33927 2.27291,2.01923 5.62534,3.04214 8.62072,3.04214 1.59234,0 3.2472,-0.29448 4.82261,-0.77291 1.11989,0.40422 2.09772,0.53433 3.01951,0.60311 l 2.69169,10.21239 3.11226,-11.13917 c 0.85812,-0.31365 1.76736,-0.61235 2.38542,-1.01347 1.32941,-0.86277 2.28489,-1.85571 3.34088,-2.88295 0.0308,0.10137 -0.005,0.0903 0.0324,0.2034 0.24275,0.72993 0.71405,2.00261 2.40914,3.27561 0.13767,0.10339 0.32653,0.1263 0.4745,0.21932 l 0.61252,11.03481 7.80762,-10.13633 c 0.77807,-0.29543 1.29802,-0.59818 1.75132,-0.91264 0.0184,0.0111 0.0397,0.0191 0.0582,0.0301 l 0.94468,8.51798 7.54878,-7.75037 c 1.15844,-0.47137 2.02245,-1.04606 2.4566,-1.3955 0.81144,-0.65308 1.1874,-1.06787 1.75779,-1.63956 l 0.35588,-0.35551 0.009,-0.0106 c 0.66034,-0.65937 0.98584,-1.14119 1.58523,-1.76338 l -1.77719,5.31136 19.13081,0 0.16392,-0.44924 c 1.33395,0.4727 2.69312,0.74815 3.90596,0.74815 2.06021,0 5.45461,-0.83675 7.4237,-2.13834 1.96909,-1.3016 3.06631,-2.57039 4.553,-4.23777 l 4.1087,-4.60742 -4.88731,-3.72131 0.28902,-0.85958 c 0.36879,-1.05853 0.70527,-2.20382 0.70527,-3.75139 0,-1.90409 -0.85407,-4.29323 -2.98717,-6.02237 -2.13308,-1.72913 -5.08091,-2.41779 -7.46684,-2.41779 -1.26922,0 -2.47106,0.22795 -3.63205,0.53945 l -2.09209,-0.85782 -2.65933,0.45279 c -1.97564,0.33625 -3.10862,0.46961 -6.47687,1.01523 l -3.9038,0.63319 c -1.61996,-1.02153 -3.48031,-1.78284 -5.57102,-1.78284 -1.17349,0 -2.3673,0.18909 -3.51126,0.52529 l -1.22938,-10.77128 z m -179.49529,6.69801 c 1.30265,0 3.22243,0.57033 4.39125,1.62896 1.16881,1.05863 1.49465,2.29194 1.49465,3.03152 0,0.16743 -0.13594,0.37817 -0.18548,0.56421 l -3.39696,-2.08881 -3.38617,0.52176 c -1.62826,0.25118 -1.55345,0.19676 -2.26248,0.29714 l 0,-3.06513 c 0.92438,-0.51565 2.00444,-0.88965 3.34519,-0.88965 z m 37.26733,5.60319 -0.0971,0.29891 c 0.002,-0.0652 0.0723,-0.19948 0.0971,-0.29891 z m 56.14148,10.3132 c 0.095,-0.0603 0.15157,0.0545 -0.16391,0.19809 0.067,-0.0627 0.0977,-0.14049 0.16391,-0.19809 z m 123.8283,9.6128 -0.2696,0.26708 c 0.0978,-0.0917 0.13674,-0.14098 0.22432,-0.22639 0.0134,-0.014 0.0318,-0.0266 0.0453,-0.0407 z"
         style="color:#000000;font-style:normal;font-variant:normal;font-weight:normal;font-stretch:normal;font-size:8.32173347px;line-height:125%;font-family:sans-serif;text-indent:0;text-align:start;text-decoration:none;text-decoration-line:none;text-decoration-style:solid;text-decoration-color:#000000;letter-spacing:0px;word-spacing:0px;text-transform:none;direction:ltr;block-progression:tb;writing-mode:lr-tb;baseline-shift:baseline;text-anchor:start;white-space:normal;clip-rule:nonzero;display:inline;overflow:visible;visibility:visible;opacity:1;isolation:auto;mix-blend-mode:normal;color-interpolation:sRGB;color-interpolation-filters:linearRGB;solid-color:#000000;solid-opacity:1;fill:#ffffff;fill-opacity:1;fill-rule:nonzero;stroke:#000000;stroke-width:2;stroke-linecap:round;stroke-linejoin:miter;stroke-miterlimit:5;stroke-dasharray:none;stroke-dashoffset:0;stroke-opacity:1;color-rendering:auto;image-rendering:auto;shape-rendering:auto;text-rendering:auto;enable-background:accumulate" />
      <g
         transform="scale(1.0732457,0.9317531)"
         style="font-style:normal;font-weight:normal;font-size:8.52884769px;line-height:125%;font-family:sans-serif;letter-spacing:0px;word-spacing:0px;fill:#000000;fill-opacity:1;stroke:#000000;stroke-width:3.54330707;stroke-linecap:square;stroke-linejoin:miter;stroke-miterlimit:5;stroke-dasharray:none;stroke-dashoffset:0;stroke-opacity:1"
         id="text5788">
        <path
           d="m 177.08354,496.28999 -7.39281,0 0,0.71301 c 1.91388,0.0375 2.62689,0.52537 2.62689,1.5386 0,0.78807 -0.22516,1.72624 -0.63796,2.88958 l -4.72839,12.72162 -5.36635,-13.6598 c -0.33775,-0.90064 -0.63796,-1.76376 -0.63796,-2.17656 0,-0.78807 1.01322,-1.27592 2.88957,-1.31344 l 0,-0.71301 -9.94463,0 0,0.71301 c 2.13903,0.0375 2.58935,0.30021 3.82774,3.60258 l 1.05076,2.81452 -3.9028,10.62012 -5.40388,-14.11012 c -0.26269,-0.71301 -0.4128,-1.31344 -0.4128,-1.76377 0,-0.78806 0.48785,-1.12581 2.40173,-1.16333 l 0,-0.71301 -9.15658,0 0,0.71301 c 1.91388,0.0375 2.66442,0.93817 3.90281,4.50323 2.21408,6.30452 4.91602,13.28453 7.20517,20.03938 l 0.5629,0 5.77915,-15.87389 c 1.9514,4.99108 4.09043,10.54506 6.0043,15.87389 l 0.56291,0 c 3.18979,-9.79453 3.56506,-10.88281 7.65549,-21.91573 0.71301,-1.9514 1.12581,-2.25161 3.11474,-2.62688 l 0,-0.71301 z"
           style="font-style:normal;font-variant:normal;font-weight:normal;font-stretch:normal;font-size:37.52692795px;font-family:STIX;-inkscape-font-specification:STIX;text-align:center;letter-spacing:6px;text-anchor:middle;fill:#ffffff;fill-opacity:1;stroke:#000000;stroke-width:3.54330707;stroke-linecap:square;stroke-miterlimit:5;stroke-dasharray:none;stroke-dashoffset:0;stroke-opacity:1"
           id="path4140" />
        <path
           d="m 189.7516,497.41579 c 0,-1.05075 -0.82559,-1.91387 -1.91387,-1.91387 -1.05075,0 -1.91387,0.86312 -1.91387,1.91387 0,1.08828 0.82559,1.91388 1.87634,1.91388 1.12581,0 1.9514,-0.8256 1.9514,-1.91388 z m 2.73947,23.71702 0,-0.5629 c -2.47678,-0.18764 -2.77699,-0.60043 -2.77699,-3.37742 l 0,-13.17196 -0.15011,-0.1501 -5.81667,2.06398 0,0.60043 c 0.67548,-0.18764 1.23838,-0.18764 1.57613,-0.18764 0.93817,0 1.23839,0.60043 1.23839,2.3642 l 0,8.51861 c 0,2.85205 -0.37527,3.18979 -2.96463,3.3399 l 0,0.5629 8.89388,0 z"
           style="font-style:normal;font-variant:normal;font-weight:normal;font-stretch:normal;font-size:37.52692795px;font-family:STIX;-inkscape-font-specification:STIX;text-align:center;letter-spacing:6px;text-anchor:middle;fill:#ffffff;fill-opacity:1;stroke:#000000;stroke-width:3.54330707;stroke-linecap:square;stroke-miterlimit:5;stroke-dasharray:none;stroke-dashoffset:0;stroke-opacity:1"
           id="path4142" />
        <path
           d="m 217.60518,521.13281 0,-0.5629 c -1.83882,-0.18764 -2.28915,-0.60043 -2.28915,-2.62689 l 0,-8.29345 c 0,-3.71516 -1.57613,-5.77914 -4.42817,-5.77914 -1.72624,0 -3.45248,0.82559 -5.40388,3.03968 l -0.0375,0 0,-2.9271 -0.30021,-0.11258 c -1.83882,0.67548 -3.07721,1.08828 -5.14119,1.68871 l 0,0.63796 c 0.26269,-0.11259 0.67548,-0.15011 1.08828,-0.15011 1.05075,0 1.31344,0.60043 1.31344,2.43925 l 0,9.11904 c 0,2.21409 -0.4128,2.81452 -2.32667,2.96463 l 0,0.5629 7.91818,0 0,-0.5629 c -1.91387,-0.15011 -2.43925,-0.67549 -2.43925,-2.13904 l 0,-10.35743 c 1.72624,-1.68871 2.62689,-2.13903 3.86528,-2.13903 1.83882,0 2.73946,1.1258 2.73946,3.79022 l 0,7.46786 c 0,2.47677 -0.45032,3.22731 -2.32667,3.37742 l -0.0375,0.5629 7.8056,0 z"
           style="font-style:normal;font-variant:normal;font-weight:normal;font-stretch:normal;font-size:37.52692795px;font-family:STIX;-inkscape-font-specification:STIX;text-align:center;letter-spacing:6px;text-anchor:middle;fill:#ffffff;fill-opacity:1;stroke:#000000;stroke-width:3.54330707;stroke-linecap:square;stroke-miterlimit:5;stroke-dasharray:none;stroke-dashoffset:0;stroke-opacity:1"
           id="path4144" />
        <path
           d="m 234.15024,518.24324 c -0.82559,0.9757 -1.42602,1.31344 -2.25161,1.31344 -1.3885,0 -1.9514,-0.9757 -1.9514,-3.37742 l 0,-10.7327 3.79022,0 0,-1.20087 -3.79022,0 0,-4.35312 c 0,-0.37527 -0.0751,-0.48785 -0.26269,-0.48785 -0.22516,0.37527 -0.52538,0.71301 -0.75054,1.05076 -1.42602,2.06398 -2.66441,3.45247 -3.64011,4.01538 -0.4128,0.26268 -0.63796,0.48785 -0.63796,0.71301 0,0.11258 0.0375,0.18763 0.15011,0.26269 l 1.98892,0 0,11.2956 c 0,3.15226 1.12581,4.76592 3.30237,4.76592 1.87635,0 3.30237,-0.90064 4.54076,-2.85204 l -0.48785,-0.4128 z"
           style="font-style:normal;font-variant:normal;font-weight:normal;font-stretch:normal;font-size:37.52692795px;font-family:STIX;-inkscape-font-specification:STIX;text-align:center;letter-spacing:6px;text-anchor:middle;fill:#ffffff;fill-opacity:1;stroke:#000000;stroke-width:3.54330707;stroke-linecap:square;stroke-miterlimit:5;stroke-dasharray:none;stroke-dashoffset:0;stroke-opacity:1"
           id="path4146" />
        <path
           d="m 255.88693,514.9784 c -1.83882,2.77699 -3.26485,3.94032 -5.77915,3.94032 -1.72624,0 -3.11474,-0.67548 -4.16549,-2.06398 -1.35097,-1.80129 -1.5386,-3.26484 -1.72624,-6.11689 l 11.55829,0 c -0.1501,-2.02645 -0.52537,-3.22731 -1.27591,-4.27807 -1.20086,-1.68871 -2.88957,-2.58935 -5.21624,-2.58935 -4.7284,0 -7.76808,3.82774 -7.76808,9.11904 0,5.17872 2.70194,8.51861 7.13012,8.51861 3.75269,0 6.37958,-2.17656 7.84313,-6.267 l -0.60043,-0.26268 z m -11.59583,-5.44141 c 0.4128,-2.81452 1.87635,-4.31559 3.97786,-4.31559 2.47678,0 3.26484,1.27591 3.67764,4.31559 l -7.6555,0 z"
           style="font-style:normal;font-variant:normal;font-weight:normal;font-stretch:normal;font-size:37.52692795px;font-family:STIX;-inkscape-font-specification:STIX;text-align:center;letter-spacing:6px;text-anchor:middle;fill:#ffffff;fill-opacity:1;stroke:#000000;stroke-width:3.54330707;stroke-linecap:square;stroke-miterlimit:5;stroke-dasharray:none;stroke-dashoffset:0;stroke-opacity:1"
           id="path4148" />
        <path
           d="m 269.21816,503.94548 -0.18763,-0.075 c -1.98893,0.78806 -3.3399,1.31344 -5.55399,2.02645 l 0,0.60043 c 0.52538,-0.11258 0.86312,-0.15011 1.31345,-0.15011 0.93817,0 1.27591,0.60043 1.27591,2.25162 l 0,9.38173 c 0,1.87635 -0.26269,2.13904 -2.66441,2.58936 l 0,0.5629 9.00646,0 0,-0.5629 c -2.55183,-0.11258 -3.18979,-0.67549 -3.18979,-2.81452 l 0,-8.44356 c 0,-1.20086 1.57613,-3.07721 2.62689,-3.07721 0.22516,0 0.5629,0.18764 0.9757,0.56291 0.60043,0.5629 1.01323,0.75053 1.50108,0.75053 0.90064,0 1.46355,-0.63795 1.46355,-1.68871 0,-1.23839 -0.78807,-1.98892 -2.06398,-1.98892 -1.57614,0 -2.62689,0.82559 -4.50324,3.52753 l 0,-3.45248 z"
           style="font-style:normal;font-variant:normal;font-weight:normal;font-stretch:normal;font-size:37.52692795px;font-family:STIX;-inkscape-font-specification:STIX;text-align:center;letter-spacing:6px;text-anchor:middle;fill:#ffffff;fill-opacity:1;stroke:#000000;stroke-width:3.54330707;stroke-linecap:square;stroke-miterlimit:5;stroke-dasharray:none;stroke-dashoffset:0;stroke-opacity:1"
           id="path4150" />
        <path
           d="m 282.3477,496.28999 0,0.71301 c 2.85204,0.18763 3.30236,0.52537 3.30236,3.49 l 0,16.32422 c 0,2.9271 -0.37526,3.41495 -3.30236,3.60258 l 0,0.71301 10.54506,0 c 3.79022,0 7.13012,-0.90064 9.45679,-2.40172 3.33989,-2.13904 5.10366,-5.66657 5.10366,-10.13227 0,-3.86528 -1.27592,-6.79238 -3.71517,-8.89388 -2.55183,-2.21409 -6.4171,-3.41495 -11.25807,-3.41495 l -10.13227,0 z m 7.13011,2.96462 c 0,-1.23839 0.56291,-1.57613 1.98893,-1.57613 3.75269,0 6.11689,0.63796 8.33098,2.58936 2.36419,2.06398 3.56505,4.65334 3.56505,8.55614 0,4.24054 -1.27591,7.20517 -3.9028,8.96894 -2.25161,1.50107 -4.31559,1.9514 -8.18087,1.9514 -1.46355,0 -1.80129,-0.45033 -1.80129,-1.76377 l 0,-18.72594 z"
           style="font-style:normal;font-variant:normal;font-weight:normal;font-stretch:normal;font-size:37.52692795px;font-family:STIX;-inkscape-font-specification:STIX;text-align:center;letter-spacing:6px;text-anchor:middle;fill:#ffffff;fill-opacity:1;stroke:#000000;stroke-width:3.54330707;stroke-linecap:square;stroke-miterlimit:5;stroke-dasharray:none;stroke-dashoffset:0;stroke-opacity:1"
           id="path4152" />
        <path
           d="m 331.45323,518.65604 c -0.63796,0.52537 -1.01323,0.71301 -1.61366,0.71301 -0.67548,0 -1.16333,-0.75054 -1.16333,-2.47678 l 0,-7.16764 c 0,-2.28915 -0.15011,-3.07721 -1.05076,-4.16549 -0.90064,-1.08828 -2.32667,-1.68871 -4.42817,-1.68871 -1.68871,0 -3.26485,0.45032 -4.3156,1.1258 -1.31344,0.8256 -1.91387,2.02646 -1.91387,3.00216 0,1.01322 0.82559,1.72624 1.61365,1.72624 0.9757,0 1.72624,-0.8256 1.72624,-1.53861 0,-0.78806 -0.22516,-0.90064 -0.22516,-1.57613 0,-1.01323 1.12581,-1.83882 2.62689,-1.83882 1.68871,0 2.9271,1.05076 2.9271,3.37743 l 0,2.02645 c -4.24055,1.57613 -5.62904,2.28914 -6.75485,3.03968 -1.46355,0.9757 -2.62688,2.43925 -2.62688,4.39065 0,2.47678 1.61365,3.9028 3.94032,3.9028 1.61366,0 3.45248,-0.48785 5.44141,-2.73946 l 0.0375,0 c 0.18764,1.98892 1.01323,2.73946 2.40173,2.73946 1.27591,0 2.25161,-0.37527 3.37742,-1.80129 l 0,-1.05075 z m -5.81667,-2.28915 c 0,1.08828 -0.22516,1.61366 -1.31345,2.3642 -0.63795,0.4128 -1.42602,0.60043 -2.17656,0.60043 -1.46355,0 -2.58936,-0.90065 -2.58936,-2.88957 0,-1.16334 0.37527,-2.06398 1.27592,-2.88958 0.93817,-0.86312 2.47678,-1.65118 4.80345,-2.47677 l 0,5.29129 z"
           style="font-style:normal;font-variant:normal;font-weight:normal;font-stretch:normal;font-size:37.52692795px;font-family:STIX;-inkscape-font-specification:STIX;text-align:center;letter-spacing:6px;text-anchor:middle;fill:#ffffff;fill-opacity:1;stroke:#000000;stroke-width:3.54330707;stroke-linecap:square;stroke-miterlimit:5;stroke-dasharray:none;stroke-dashoffset:0;stroke-opacity:1"
           id="path4154" />
        <path
           d="m 362.30192,504.24569 -4.61581,0 0,0.56291 c 1.27592,0.26269 1.65119,0.52538 1.65119,1.12581 0,0.60043 -0.22517,1.50107 -0.63796,2.5143 l -3.37743,8.33098 -3.15226,-8.40603 c -0.45032,-1.16334 -0.63795,-1.61366 -0.63795,-2.25162 0,-0.78806 0.41279,-1.05075 2.17656,-1.31344 l 0,-0.56291 -7.61797,0 0,0.56291 c 1.3885,0.15011 1.87635,0.5629 2.58936,2.58936 l 0.75054,2.1015 -3.41495,7.46786 -3.71517,-9.79452 c -0.15011,-0.37527 -0.22516,-0.75054 -0.22516,-1.12581 0,-0.78807 0.4128,-1.08828 1.72624,-1.23839 l 0,-0.56291 -6.75485,0 0,0.56291 c 0.86312,0.075 1.20086,0.33774 1.98893,2.3642 l 5.06613,12.8342 c 0.45033,1.16334 0.75054,1.65119 0.9757,1.65119 0.18764,0 0.48785,-0.48785 0.93818,-1.46355 l 4.20301,-9.00646 3.41495,8.85635 c 0.56291,1.42602 0.63796,1.61366 0.90065,1.61366 0.26269,0 0.45032,-0.33774 1.05075,-1.83882 l 5.17872,-12.98432 c 0.60043,-1.50107 0.78806,-1.76376 1.5386,-2.02645 l 0,-0.56291 z"
           style="font-style:normal;font-variant:normal;font-weight:normal;font-stretch:normal;font-size:37.52692795px;font-family:STIX;-inkscape-font-specification:STIX;text-align:center;letter-spacing:6px;text-anchor:middle;fill:#ffffff;fill-opacity:1;stroke:#000000;stroke-width:3.54330707;stroke-linecap:square;stroke-miterlimit:5;stroke-dasharray:none;stroke-dashoffset:0;stroke-opacity:1"
           id="path4156" />
        <path
           d="m 387.57786,521.13281 0,-0.5629 c -1.83882,-0.18764 -2.28914,-0.60043 -2.28914,-2.62689 l 0,-8.29345 c 0,-3.71516 -1.57613,-5.77914 -4.42818,-5.77914 -1.72624,0 -3.45248,0.82559 -5.40388,3.03968 l -0.0375,0 0,-2.9271 -0.30022,-0.11258 c -1.83882,0.67548 -3.07721,1.08828 -5.14119,1.68871 l 0,0.63796 c 0.26269,-0.11259 0.67549,-0.15011 1.08828,-0.15011 1.05076,0 1.31344,0.60043 1.31344,2.43925 l 0,9.11904 c 0,2.21409 -0.41279,2.81452 -2.32667,2.96463 l 0,0.5629 7.91819,0 0,-0.5629 c -1.91388,-0.15011 -2.43925,-0.67549 -2.43925,-2.13904 l 0,-10.35743 c 1.72623,-1.68871 2.62688,-2.13903 3.86527,-2.13903 1.83882,0 2.73947,1.1258 2.73947,3.79022 l 0,7.46786 c 0,2.47677 -0.45033,3.22731 -2.32667,3.37742 l -0.0375,0.5629 7.8056,0 z"
           style="font-style:normal;font-variant:normal;font-weight:normal;font-stretch:normal;font-size:37.52692795px;font-family:STIX;-inkscape-font-specification:STIX;text-align:center;letter-spacing:6px;text-anchor:middle;fill:#ffffff;fill-opacity:1;stroke:#000000;stroke-width:3.54330707;stroke-linecap:square;stroke-miterlimit:5;stroke-dasharray:none;stroke-dashoffset:0;stroke-opacity:1"
           id="path4158" />
      </g>
      <g
         transform="scale(1.0694205,0.93508588)"
         style="font-style:normal;font-weight:normal;font-size:8.49844933px;line-height:125%;font-family:sans-serif;letter-spacing:0px;word-spacing:0px;fill:#000000;fill-opacity:1;stroke:none;stroke-width:0.88582677;stroke-linecap:butt;stroke-linejoin:miter;stroke-miterlimit:4;stroke-dasharray:none;stroke-opacity:1"
         id="text5792">
        <path
           d="m 178.47251,494.52111 -7.36645,0 0,0.71047 c 1.90705,0.0374 2.61752,0.5235 2.61752,1.53312 0,0.78525 -0.22436,1.72008 -0.63569,2.87927 l -4.71154,12.67629 -5.34722,-13.61112 c -0.33654,-0.89743 -0.63568,-1.75748 -0.63568,-2.1688 0,-0.78526 1.00961,-1.27137 2.87927,-1.30876 l 0,-0.71047 -9.90919,0 0,0.71047 c 2.13141,0.0374 2.58013,0.29914 3.8141,3.58974 l 1.04701,2.80449 -3.88889,10.58227 -5.38462,-14.05983 c -0.26175,-0.71047 -0.41132,-1.30877 -0.41132,-1.75748 0,-0.78526 0.48611,-1.1218 2.39316,-1.15919 l 0,-0.71047 -9.12393,0 0,0.71047 c 1.90705,0.0374 2.65491,0.93483 3.88889,4.48718 2.2062,6.28205 4.8985,13.23718 7.17949,19.96796 l 0.5609,0 5.75854,-15.81732 c 1.94445,4.97329 4.07586,10.50748 5.98291,15.81732 l 0.5609,0 c 3.17842,-9.75962 3.55235,-10.84403 7.62821,-21.83762 0.71047,-1.94445 1.12179,-2.24359 3.10363,-2.61752 l 0,-0.71047 z"
           style="font-style:normal;font-variant:normal;font-weight:normal;font-stretch:normal;font-size:37.39317703px;font-family:STIX;-inkscape-font-specification:STIX;text-align:center;letter-spacing:6px;text-anchor:middle;fill:#ffffff;fill-opacity:1;stroke:none;stroke-width:0.88582677;stroke-miterlimit:4;stroke-dasharray:none;stroke-opacity:1"
           id="path4161" />
        <path
           d="m 191.11681,495.6429 c 0,-1.04701 -0.82265,-1.90705 -1.90705,-1.90705 -1.04701,0 -1.90705,0.86004 -1.90705,1.90705 0,1.0844 0.82265,1.90705 1.86966,1.90705 1.12179,0 1.94444,-0.82265 1.94444,-1.90705 z m 2.7297,23.63249 0,-0.5609 c -2.46795,-0.18696 -2.76709,-0.59829 -2.76709,-3.36538 l 0,-13.12501 -0.14957,-0.14957 -5.79595,2.05662 0,0.59829 c 0.67308,-0.18696 1.23398,-0.18696 1.57052,-0.18696 0.93483,0 1.23397,0.59829 1.23397,2.35577 l 0,8.48825 c 0,2.84188 -0.37393,3.17842 -2.95406,3.32799 l 0,0.5609 8.86218,0 z"
           style="font-style:normal;font-variant:normal;font-weight:normal;font-stretch:normal;font-size:37.39317703px;font-family:STIX;-inkscape-font-specification:STIX;text-align:center;letter-spacing:6px;text-anchor:middle;fill:#ffffff;fill-opacity:1;stroke:none;stroke-width:0.88582677;stroke-miterlimit:4;stroke-dasharray:none;stroke-opacity:1"
           id="path4163" />
        <path
           d="m 218.8925,519.27539 0,-0.5609 c -1.83227,-0.18696 -2.28099,-0.59829 -2.28099,-2.61752 l 0,-8.26389 c 0,-3.70193 -1.57051,-5.75855 -4.41239,-5.75855 -1.72009,0 -3.44017,0.82265 -5.38462,3.02885 l -0.0374,0 0,-2.91667 -0.29915,-0.11218 c -1.83226,0.67308 -3.06624,1.0844 -5.12286,1.68269 l 0,0.63569 c 0.26175,-0.11218 0.67307,-0.14958 1.0844,-0.14958 1.04701,0 1.30876,0.59829 1.30876,2.43056 l 0,9.08654 c 0,2.2062 -0.41132,2.80449 -2.31838,2.95406 l 0,0.5609 7.88996,0 0,-0.5609 c -1.90705,-0.14957 -2.43055,-0.67307 -2.43055,-2.13141 l 0,-10.32051 c 1.72008,-1.6827 2.61752,-2.13142 3.85149,-2.13142 1.83227,0 2.72971,1.1218 2.72971,3.77671 l 0,7.44125 c 0,2.46795 -0.44872,3.21581 -2.31838,3.36538 l -0.0374,0.5609 7.77778,0 z"
           style="font-style:normal;font-variant:normal;font-weight:normal;font-stretch:normal;font-size:37.39317703px;font-family:STIX;-inkscape-font-specification:STIX;text-align:center;letter-spacing:6px;text-anchor:middle;fill:#ffffff;fill-opacity:1;stroke:none;stroke-width:0.88582677;stroke-miterlimit:4;stroke-dasharray:none;stroke-opacity:1"
           id="path4165" />
        <path
           d="m 235.39998,516.39612 c -0.82265,0.97222 -1.42094,1.30876 -2.24359,1.30876 -1.38355,0 -1.94445,-0.97223 -1.94445,-3.36539 l 0,-10.69445 3.77671,0 0,-1.19658 -3.77671,0 0,-4.33761 c 0,-0.37393 -0.0748,-0.48611 -0.26175,-0.48611 -0.22436,0.37393 -0.5235,0.71047 -0.74786,1.04701 -1.42094,2.05662 -2.65492,3.44017 -3.62714,4.00107 -0.41133,0.26175 -0.63569,0.48611 -0.63569,0.71047 0,0.11218 0.0374,0.18697 0.14958,0.26175 l 1.98184,0 0,11.25535 c 0,3.14103 1.12179,4.74893 3.2906,4.74893 1.86965,0 3.29059,-0.89743 4.52457,-2.84188 l -0.48611,-0.41132 z"
           style="font-style:normal;font-variant:normal;font-weight:normal;font-stretch:normal;font-size:37.39317703px;font-family:STIX;-inkscape-font-specification:STIX;text-align:center;letter-spacing:6px;text-anchor:middle;fill:#ffffff;fill-opacity:1;stroke:none;stroke-width:0.88582677;stroke-miterlimit:4;stroke-dasharray:none;stroke-opacity:1"
           id="path4167" />
        <path
           d="m 257.08058,513.14291 c -1.83227,2.76709 -3.25321,3.92628 -5.75855,3.92628 -1.72009,0 -3.10364,-0.67307 -4.15065,-2.05662 -1.34615,-1.79487 -1.53312,-3.25321 -1.72008,-6.09509 l 11.5171,0 c -0.14958,-2.01923 -0.52351,-3.21581 -1.27137,-4.26282 -1.19658,-1.68269 -2.87928,-2.58013 -5.19765,-2.58013 -4.71154,0 -7.74039,3.8141 -7.74039,9.08654 0,5.16026 2.69231,8.48825 7.1047,8.48825 3.73932,0 6.35684,-2.1688 7.81518,-6.24466 l -0.59829,-0.26175 z m -11.5545,-5.42201 c 0.41133,-2.80449 1.86966,-4.30022 3.96368,-4.30022 2.46795,0 3.25321,1.27137 3.66453,4.30022 l -7.62821,0 z"
           style="font-style:normal;font-variant:normal;font-weight:normal;font-stretch:normal;font-size:37.39317703px;font-family:STIX;-inkscape-font-specification:STIX;text-align:center;letter-spacing:6px;text-anchor:middle;fill:#ffffff;fill-opacity:1;stroke:none;stroke-width:0.88582677;stroke-miterlimit:4;stroke-dasharray:none;stroke-opacity:1"
           id="path4169" />
        <path
           d="m 270.38568,502.14932 -0.18697,-0.0748 c -1.98183,0.78526 -3.32799,1.30876 -5.53419,2.01923 l 0,0.59829 c 0.52351,-0.11218 0.86005,-0.14957 1.30877,-0.14957 0.93483,0 1.27136,0.59829 1.27136,2.24359 l 0,9.34829 c 0,1.86966 -0.26175,2.13141 -2.65491,2.58013 l 0,0.5609 8.97436,0 0,-0.5609 c -2.54274,-0.11218 -3.17842,-0.67307 -3.17842,-2.80449 l 0,-8.41346 c 0,-1.19658 1.57051,-3.06624 2.61752,-3.06624 0.22436,0 0.5609,0.18697 0.97223,0.5609 0.59829,0.56089 1.00961,0.74786 1.49572,0.74786 0.89744,0 1.45834,-0.63568 1.45834,-1.68269 0,-1.23398 -0.78526,-1.98184 -2.05663,-1.98184 -1.57051,0 -2.61752,0.82265 -4.48718,3.51496 l 0,-3.44017 z"
           style="font-style:normal;font-variant:normal;font-weight:normal;font-stretch:normal;font-size:37.39317703px;font-family:STIX;-inkscape-font-specification:STIX;text-align:center;letter-spacing:6px;text-anchor:middle;fill:#ffffff;fill-opacity:1;stroke:none;stroke-width:0.88582677;stroke-miterlimit:4;stroke-dasharray:none;stroke-opacity:1"
           id="path4171" />
        <path
           d="m 283.4898,494.52111 0,0.71047 c 2.84188,0.18696 3.2906,0.5235 3.2906,3.47756 l 0,16.26604 c 0,2.91666 -0.37393,3.40277 -3.2906,3.58974 l 0,0.71047 10.50748,0 c 3.77672,0 7.10471,-0.89744 9.42309,-2.39316 3.32799,-2.13141 5.08547,-5.64637 5.08547,-10.09616 0,-3.8515 -1.27137,-6.76817 -3.70193,-8.86218 -2.54273,-2.2062 -6.39423,-3.40278 -11.21795,-3.40278 l -10.09616,0 z m 7.10471,2.95406 c 0,-1.23398 0.56089,-1.57052 1.98183,-1.57052 3.73932,0 6.09509,0.63569 8.30129,2.58013 2.35577,2.05663 3.55235,4.63676 3.55235,8.52565 0,4.22543 -1.27137,7.17949 -3.88889,8.93697 -2.24359,1.49572 -4.30021,1.94444 -8.15171,1.94444 -1.45834,0 -1.79487,-0.44872 -1.79487,-1.75748 l 0,-18.65919 z"
           style="font-style:normal;font-variant:normal;font-weight:normal;font-stretch:normal;font-size:37.39317703px;font-family:STIX;-inkscape-font-specification:STIX;text-align:center;letter-spacing:6px;text-anchor:middle;fill:#ffffff;fill-opacity:1;stroke:none;stroke-width:0.88582677;stroke-miterlimit:4;stroke-dasharray:none;stroke-opacity:1"
           id="path4173" />
        <path
           d="m 332.44171,516.80744 c -0.63568,0.52351 -1.00962,0.71047 -1.60791,0.71047 -0.67307,0 -1.15918,-0.74786 -1.15918,-2.46795 l 0,-7.1421 c 0,-2.28098 -0.14958,-3.06624 -1.04701,-4.15064 -0.89744,-1.0844 -2.31838,-1.68269 -4.4124,-1.68269 -1.68269,0 -3.2532,0.44872 -4.30021,1.12179 -1.30876,0.82265 -1.90706,2.01924 -1.90706,2.99146 0,1.00961 0.82265,1.72008 1.60791,1.72008 0.97222,0 1.72009,-0.82265 1.72009,-1.53312 0,-0.78525 -0.22436,-0.89743 -0.22436,-1.57051 0,-1.00961 1.12179,-1.83226 2.61752,-1.83226 1.68269,0 2.91667,1.047 2.91667,3.36538 l 0,2.01923 c -4.22543,1.57052 -5.60898,2.28099 -6.73077,3.02885 -1.45834,0.97222 -2.61753,2.43056 -2.61753,4.375 0,2.46795 1.60791,3.88889 3.92629,3.88889 1.6079,0 3.44017,-0.48611 5.42201,-2.7297 l 0.0374,0 c 0.18697,1.98184 1.00962,2.7297 2.39316,2.7297 1.27137,0 2.2436,-0.37393 3.36539,-1.79487 l 0,-1.04701 z m -5.79594,-2.28098 c 0,1.0844 -0.22436,1.6079 -1.30876,2.35577 -0.63569,0.41132 -1.42094,0.59829 -2.16881,0.59829 -1.45833,0 -2.58013,-0.89744 -2.58013,-2.87928 0,-1.15918 0.37394,-2.05662 1.27137,-2.87927 0.93483,-0.86004 2.46795,-1.6453 4.78633,-2.46795 l 0,5.27244 z"
           style="font-style:normal;font-variant:normal;font-weight:normal;font-stretch:normal;font-size:37.39317703px;font-family:STIX;-inkscape-font-specification:STIX;text-align:center;letter-spacing:6px;text-anchor:middle;fill:#ffffff;fill-opacity:1;stroke:none;stroke-width:0.88582677;stroke-miterlimit:4;stroke-dasharray:none;stroke-opacity:1"
           id="path4175" />
        <path
           d="m 363.20183,502.44846 -4.59936,0 0,0.5609 c 1.27136,0.26175 1.6453,0.5235 1.6453,1.12179 0,0.59829 -0.22436,1.49573 -0.63569,2.50535 l -3.36538,8.30128 -3.14103,-8.37607 c -0.44872,-1.15919 -0.63568,-1.60791 -0.63568,-2.24359 0,-0.78526 0.41132,-1.04701 2.1688,-1.30876 l 0,-0.5609 -7.59082,0 0,0.5609 c 1.38355,0.14957 1.86966,0.5609 2.58013,2.58013 l 0.74787,2.09402 -3.40278,7.44124 -3.70193,-9.75962 c -0.14957,-0.37393 -0.22436,-0.74786 -0.22436,-1.1218 0,-0.78525 0.41133,-1.0844 1.72009,-1.23397 l 0,-0.5609 -6.73077,0 0,0.5609 c 0.86004,0.0748 1.19658,0.33654 1.98184,2.35577 l 5.04808,12.78847 c 0.44871,1.15918 0.74786,1.6453 0.97222,1.6453 0.18696,0 0.48611,-0.48612 0.93483,-1.45834 l 4.18803,-8.97436 3.40278,8.82479 c 0.5609,1.42094 0.63569,1.60791 0.89744,1.60791 0.26175,0 0.44872,-0.33654 1.04701,-1.83227 l 5.16026,-12.93804 c 0.59829,-1.49573 0.78525,-1.75748 1.53312,-2.01923 l 0,-0.5609 z"
           style="font-style:normal;font-variant:normal;font-weight:normal;font-stretch:normal;font-size:37.39317703px;font-family:STIX;-inkscape-font-specification:STIX;text-align:center;letter-spacing:6px;text-anchor:middle;fill:#ffffff;fill-opacity:1;stroke:none;stroke-width:0.88582677;stroke-miterlimit:4;stroke-dasharray:none;stroke-opacity:1"
           id="path4177" />
        <path
           d="m 388.40907,519.27539 0,-0.5609 c -1.83227,-0.18696 -2.28099,-0.59829 -2.28099,-2.61752 l 0,-8.26389 c 0,-3.70193 -1.57051,-5.75855 -4.41239,-5.75855 -1.72009,0 -3.44017,0.82265 -5.38462,3.02885 l -0.0374,0 0,-2.91667 -0.29915,-0.11218 c -1.83226,0.67308 -3.06624,1.0844 -5.12286,1.68269 l 0,0.63569 c 0.26175,-0.11218 0.67308,-0.14958 1.0844,-0.14958 1.04701,0 1.30876,0.59829 1.30876,2.43056 l 0,9.08654 c 0,2.2062 -0.41132,2.80449 -2.31838,2.95406 l 0,0.5609 7.88997,0 0,-0.5609 c -1.90706,-0.14957 -2.43056,-0.67307 -2.43056,-2.13141 l 0,-10.32051 c 1.72008,-1.6827 2.61752,-2.13142 3.8515,-2.13142 1.83226,0 2.7297,1.1218 2.7297,3.77671 l 0,7.44125 c 0,2.46795 -0.44872,3.21581 -2.31838,3.36538 l -0.0374,0.5609 7.77778,0 z"
           style="font-style:normal;font-variant:normal;font-weight:normal;font-stretch:normal;font-size:37.39317703px;font-family:STIX;-inkscape-font-specification:STIX;text-align:center;letter-spacing:6px;text-anchor:middle;fill:#ffffff;fill-opacity:1;stroke:none;stroke-width:0.88582677;stroke-miterlimit:4;stroke-dasharray:none;stroke-opacity:1"
           id="path4179" />
      </g>
    </g>
  </g>
</svg>
