<?xml version="1.0" encoding="UTF-8" standalone="no"?>
<!-- Created with Inkscape (http://www.inkscape.org/) -->

<svg
   xmlns:dc="http://purl.org/dc/elements/1.1/"
   xmlns:cc="http://creativecommons.org/ns#"
   xmlns:rdf="http://www.w3.org/1999/02/22-rdf-syntax-ns#"
   xmlns:svg="http://www.w3.org/2000/svg"
   xmlns="http://www.w3.org/2000/svg"
   xmlns:sodipodi="http://sodipodi.sourceforge.net/DTD/sodipodi-0.dtd"
   xmlns:inkscape="http://www.inkscape.org/namespaces/inkscape"
   width="21.59cm"
   height="27.940001cm"
   viewBox="0 0 765 990"
   id="svg7865"
   version="1.1"
   inkscape:version="0.91 r13725"
   sodipodi:docname="grid.svg">
  <defs
     id="defs7867" />
  <sodipodi:namedview
     id="base"
     pagecolor="#ffffff"
     bordercolor="#666666"
     borderopacity="1.0"
     inkscape:pageopacity="0.0"
     inkscape:pageshadow="2"
     inkscape:zoom="0.5"
     inkscape:cx="455.30568"
     inkscape:cy="553.63082"
     inkscape:document-units="mm"
     inkscape:current-layer="layer1"
     showgrid="false"
     units="cm"
     inkscape:window-width="1440"
     inkscape:window-height="856"
     inkscape:window-x="0"
     inkscape:window-y="0"
     inkscape:window-maximized="1" />
  <metadata
     id="metadata7870">
    <rdf:RDF>
      <cc:Work
         rdf:about="">
        <dc:format>image/svg+xml</dc:format>
        <dc:type
           rdf:resource="http://purl.org/dc/dcmitype/StillImage" />
        <dc:title></dc:title>
      </cc:Work>
    </rdf:RDF>
  </metadata>
  <g
     inkscape:label="Layer 1"
     inkscape:groupmode="layer"
     id="layer1"
     transform="translate(0,-62.362205)">
    <path
       id="path9748"
       style="opacity:1;fill:none;fill-opacity:1;fill-rule:nonzero;stroke:#000000;stroke-width:1;stroke-linecap:butt;stroke-linejoin:miter;stroke-miterlimit:4;stroke-dasharray:none;stroke-dashoffset:0;stroke-opacity:1"
       d="m 798.79264,1044.7631 -20.5089,35.4987 -41.01778,0 -20.5089,-35.4987 20.5089,-35.4986 41.01778,0 z m 0,-72.17363 -20.5089,35.49863 -41.01778,0 -20.5089,-35.49863 20.5089,-35.49867 41.01778,0 z m 0,-72.17368 -20.5089,35.49865 -41.01778,0 -20.5089,-35.49865 20.5089,-35.49867 41.01778,0 z m 0,-72.2568 -20.5089,35.49867 -41.01778,0 -20.5089,-35.49867 20.5089,-35.49866 41.01778,0 z m 0,-72.17367 -20.5089,35.49865 -41.01778,0 -20.5089,-35.49865 20.5089,-35.49867 41.01778,0 z m 0,-72.2568 -20.5089,35.49868 -41.01778,0 -20.5089,-35.49868 20.5089,-35.49867 41.01778,0 z m 0,-72.17368 -20.5089,35.49866 -41.01778,0 -20.5089,-35.49866 20.5089,-35.49867 41.01778,0 z m 0,-72.17369 -20.5089,35.49865 -41.01778,0 -20.5089,-35.49865 20.5089,-35.49867 41.01778,0 z m 0,-72.2568 -20.5089,35.49866 -41.01778,0 -20.5089,-35.49866 20.5089,-35.49867 41.01778,0 z m 0,-72.17367 -20.5089,35.49864 -41.01778,0 -20.5089,-35.49864 20.5089,-35.49868 41.01778,0 z m 0,-72.25681 -20.5089,35.49867 -41.01778,0 -20.5089,-35.49867 20.5089,-35.49865 41.01778,0 z m 0,-72.17366 -20.5089,35.49865 -41.01778,0 -20.5089,-35.49865 20.5089,-35.49867 41.01778,0 z m 0,-72.25681 -20.5089,35.49868 -41.01778,0 -20.5089,-35.49868 20.5089,-35.49866 41.01778,0 z m 0,-72.17367 -20.5089,35.49866 -41.01778,0 -20.5089,-35.49866 20.5089,-35.498664 41.01778,0 z m 0,-72.256801 -20.5089,35.498671 -41.01778,0 -20.5089,-35.498671 20.5089,-35.4986665 41.01778,0 z m 0,72.256801 -20.5089,35.49866 -41.01778,0 -20.5089,-35.49866 20.5089,-35.498664 41.01778,0 z m 0,-72.256801 -20.5089,35.498671 -41.01778,0 -20.5089,-35.498671 20.5089,-35.4986665 41.01778,0 z m -62.54538,180.475771 -20.5089,35.49867 -41.01778,0 -20.50889,-35.49867 20.50889,-35.49868 41.01778,0 z m 0,-72.17368 -20.5089,35.49867 -41.01778,0 -20.50889,-35.49867 20.50889,-35.49868 41.01778,0 z m 0,794.32605 -20.5089,35.49867 -41.01778,0 -20.50889,-35.49867 20.50889,-35.49867 41.01778,0 z m 0,144.43053 -20.5089,35.4986 -41.01778,0 -20.50889,-35.4986 20.50889,-35.4987 41.01778,0 z m 0,-72.2569 -20.5089,35.4987 -41.01778,0 -20.50889,-35.4987 20.50889,-35.49862 41.01778,0 z m -62.54625,36.1284 -20.50889,35.4987 -41.01779,0 -20.50889,-35.4987 20.50889,-35.4986 41.01779,0 z m 0,-72.17363 -20.50889,35.49863 -41.01779,0 -20.50889,-35.49863 20.50889,-35.49867 41.01779,0 z m 62.54625,-397.16303 -20.5089,35.49867 -41.01778,0 -20.50889,-35.49867 20.50889,-35.49867 41.01778,0 z m 0,288.86096 -20.5089,35.49864 -41.01778,0 -20.50889,-35.49864 20.50889,-35.49868 41.01778,0 z m 0,-72.25681 -20.5089,35.49867 -41.01778,0 -20.50889,-35.49867 20.50889,-35.49867 41.01778,0 z m 0,-72.17368 -20.5089,35.49866 -41.01778,0 -20.50889,-35.49866 20.50889,-35.49867 41.01778,0 z m 0,-72.2568 -20.5089,35.49868 -41.01778,0 -20.50889,-35.49868 20.50889,-35.49867 41.01778,0 z m -62.54625,252.81568 -20.50889,35.49865 -41.01779,0 -20.50889,-35.49865 20.50889,-35.49867 41.01779,0 z m 0,-72.2568 -20.50889,35.49867 -41.01779,0 -20.50889,-35.49867 20.50889,-35.49866 41.01779,0 z m 0,-72.17367 -20.50889,35.49865 -41.01779,0 -20.50889,-35.49865 20.50889,-35.49867 41.01779,0 z m 0,-72.2568 -20.50889,35.49868 -41.01779,0 -20.50889,-35.49868 20.50889,-35.49867 41.01779,0 z m 0,-72.17368 -20.50889,35.49866 -41.01779,0 -20.50889,-35.49866 20.50889,-35.49867 41.01779,0 z m 62.54625,-108.30209 -20.5089,35.49866 -41.01778,0 -20.50889,-35.49866 20.50889,-35.49867 41.01778,0 z m 0,-72.2568 -20.5089,35.49868 -41.01778,0 -20.50889,-35.49868 20.50889,-35.49867 41.01778,0 z m 0,-72.17367 -20.5089,35.49866 -41.01778,0 -20.50889,-35.49866 20.50889,-35.49867 41.01778,0 z m 0,-72.2568 -20.5089,35.49867 -41.01778,0 -20.50889,-35.49867 20.50889,-35.49867 41.01778,0 z m -62.54625,252.81567 -20.50889,35.49865 -41.01779,0 -20.50889,-35.49865 20.50889,-35.49867 41.01779,0 z m 0,-72.2568 -20.50889,35.49866 -41.01779,0 -20.50889,-35.49866 20.50889,-35.49867 41.01779,0 z m 0,-72.17367 -20.50889,35.49864 -41.01779,0 -20.50889,-35.49864 20.50889,-35.49868 41.01779,0 z m 0,-72.25681 -20.50889,35.49867 -41.01779,0 -20.50889,-35.49867 20.50889,-35.49865 41.01779,0 z m 0,-72.17366 -20.50889,35.49865 -41.01779,0 -20.50889,-35.49865 20.50889,-35.49867 41.01779,0 z m 0,-72.25681 -20.50889,35.49868 -41.01779,0 -20.50889,-35.49868 20.50889,-35.49866 41.01779,0 z m 0,-72.17367 -20.50889,35.49866 -41.01779,0 -20.50889,-35.49866 20.50889,-35.498664 41.01779,0 z m 0,-72.256801 -20.50889,35.498671 -41.01779,0 -20.50889,-35.498671 20.50889,-35.4986665 41.01779,0 z m 62.54625,36.128398 -20.5089,35.498673 -41.01778,0 -20.50889,-35.498673 20.50889,-35.498672 41.01778,0 z m 0,0 -20.5089,35.498673 -41.01778,0 -20.50889,-35.498673 20.50889,-35.498672 41.01778,0 z m -62.54625,36.128403 -20.50889,35.49866 -41.01779,0 -20.50889,-35.49866 20.50889,-35.498664 41.01779,0 z m 0,-72.256801 -20.50889,35.498671 -41.01779,0 -20.50889,-35.498671 20.50889,-35.4986665 41.01779,0 z m -62.54537,902.628141 -20.50889,35.49867 -41.01778,0 -20.5089,-35.49867 20.5089,-35.49867 41.01778,0 z m 0,144.43053 -20.50889,35.4986 -41.01778,0 -20.5089,-35.4986 20.5089,-35.4987 41.01778,0 z m 0,-72.2569 -20.50889,35.4987 -41.01778,0 -20.5089,-35.4987 20.5089,-35.49862 41.01778,0 z m -62.54624,36.1284 -20.5089,35.4987 -41.01778,0 -20.50891,-35.4987 20.50891,-35.4986 41.01778,0 z m 0,-72.17363 -20.5089,35.49863 -41.01778,0 -20.50891,-35.49863 20.50891,-35.49867 41.01778,0 z m 62.54624,-397.16303 -20.50889,35.49867 -41.01778,0 -20.5089,-35.49867 20.5089,-35.49867 41.01778,0 z m 0,288.86096 -20.50889,35.49864 -41.01778,0 -20.5089,-35.49864 20.5089,-35.49868 41.01778,0 z m 0,-72.25681 -20.50889,35.49867 -41.01778,0 -20.5089,-35.49867 20.5089,-35.49867 41.01778,0 z m 0,-72.17368 -20.50889,35.49866 -41.01778,0 -20.5089,-35.49866 20.5089,-35.49867 41.01778,0 z m 0,-72.2568 -20.50889,35.49868 -41.01778,0 -20.5089,-35.49868 20.5089,-35.49867 41.01778,0 z m -62.54624,252.81568 -20.5089,35.49865 -41.01778,0 -20.50891,-35.49865 20.50891,-35.49867 41.01778,0 z m 0,-72.2568 -20.5089,35.49867 -41.01778,0 -20.50891,-35.49867 20.50891,-35.49866 41.01778,0 z m 0,-72.17368 -20.5089,35.49866 -41.01778,0 -20.50891,-35.49866 20.50891,-35.49867 41.01778,0 z m 0,-72.2568 -20.5089,35.49867 -41.01778,0 -20.50891,-35.49867 20.50891,-35.49866 41.01778,0 z m 0,-72.17367 -20.5089,35.49866 -41.01778,0 -20.50891,-35.49866 20.50891,-35.49867 41.01778,0 z m 62.54624,-108.30209 -20.50889,35.49866 -41.01778,0 -20.5089,-35.49866 20.5089,-35.49867 41.01778,0 z m 0,-72.2568 -20.50889,35.49868 -41.01778,0 -20.5089,-35.49868 20.5089,-35.49867 41.01778,0 z m 0,-72.17366 -20.50889,35.49866 -41.01778,0 -20.5089,-35.49866 20.5089,-35.49867 41.01778,0 z m 0,-72.2568 -20.50889,35.49867 -41.01778,0 -20.5089,-35.49867 20.5089,-35.49867 41.01778,0 z m -62.54624,252.81567 -20.5089,35.49866 -41.01778,0 -20.50891,-35.49866 20.50891,-35.49867 41.01778,0 z m 0,-72.2568 -20.5089,35.49866 -41.01778,0 -20.50891,-35.49866 20.50891,-35.49867 41.01778,0 z m 0,-72.17367 -20.5089,35.49865 -41.01778,0 -20.50891,-35.49865 20.50891,-35.49867 41.01778,0 z m 0,-72.25681 -20.5089,35.49867 -41.01778,0 -20.50891,-35.49867 20.50891,-35.49866 41.01778,0 z m 0,-72.17367 -20.5089,35.49865 -41.01778,0 -20.50891,-35.49865 20.50891,-35.49867 41.01778,0 z m 0,-72.25681 -20.5089,35.49868 -41.01778,0 -20.50891,-35.49868 20.50891,-35.49866 41.01778,0 z m 0,-72.17367 -20.5089,35.49866 -41.01778,0 -20.50891,-35.49866 20.50891,-35.498664 41.01778,0 z m 0,-72.256801 -20.5089,35.498671 -41.01778,0 -20.50891,-35.498671 20.50891,-35.4986665 41.01778,0 z m 62.54624,36.128398 -20.50889,35.498673 -41.01778,0 -20.5089,-35.498673 20.5089,-35.498672 41.01778,0 z m -125.09161,866.499743 -20.50889,35.49867 -41.01779,0 -20.50889,-35.49867 20.50889,-35.49867 41.01779,0 z m 0,144.43053 -20.50889,35.4986 -41.01779,0 -20.50889,-35.4986 20.50889,-35.4987 41.01779,0 z m 0,-72.2569 -20.50889,35.4987 -41.01779,0 -20.50889,-35.4987 20.50889,-35.49862 41.01779,0 z m -62.54626,36.1284 -20.50889,35.4987 -41.01778,0 -20.50889,-35.4987 20.50889,-35.4986 41.01778,0 z m 0,-72.17363 -20.50889,35.49863 -41.01778,0 -20.50889,-35.49863 20.50889,-35.49867 41.01778,0 z m 62.54626,-397.16303 -20.50889,35.49867 -41.01779,0 -20.50889,-35.49867 20.50889,-35.49867 41.01779,0 z m 0,288.86096 -20.50889,35.49864 -41.01779,0 -20.50889,-35.49864 20.50889,-35.49868 41.01779,0 z m 0,-72.25681 -20.50889,35.49867 -41.01779,0 -20.50889,-35.49867 20.50889,-35.49867 41.01779,0 z m 0,-72.17368 -20.50889,35.49866 -41.01779,0 -20.50889,-35.49866 20.50889,-35.49867 41.01779,0 z m 0,-72.2568 -20.50889,35.49868 -41.01779,0 -20.50889,-35.49868 20.50889,-35.49867 41.01779,0 z m -62.54626,252.81568 -20.50889,35.49865 -41.01778,0 -20.50889,-35.49865 20.50889,-35.49867 41.01778,0 z m 0,-72.2568 -20.50889,35.49867 -41.01778,0 -20.50889,-35.49867 20.50889,-35.49866 41.01778,0 z m 0,-72.17368 -20.50889,35.49866 -41.01778,0 -20.50889,-35.49866 20.50889,-35.49867 41.01778,0 z m 0,-72.2568 -20.50889,35.49867 -41.01778,0 -20.50889,-35.49867 20.50889,-35.49866 41.01778,0 z m 0,-72.17367 -20.50889,35.49866 -41.01778,0 -20.50889,-35.49866 20.50889,-35.49867 41.01778,0 z m 62.54626,-108.30209 -20.50889,35.49866 -41.01779,0 -20.50889,-35.49866 20.50889,-35.49867 41.01779,0 z m 0,-72.2568 -20.50889,35.49868 -41.01779,0 -20.50889,-35.49868 20.50889,-35.49867 41.01779,0 z m 0,-72.17366 -20.50889,35.49866 -41.01779,0 -20.50889,-35.49866 20.50889,-35.49867 41.01779,0 z m 0,-72.2568 -20.50889,35.49867 -41.01779,0 -20.50889,-35.49867 20.50889,-35.49867 41.01779,0 z m -62.54626,252.81567 -20.50889,35.49866 -41.01778,0 -20.50889,-35.49866 20.50889,-35.49867 41.01778,0 z m 0,-72.2568 -20.50889,35.49866 -41.01778,0 -20.50889,-35.49866 20.50889,-35.49867 41.01778,0 z m 0,-72.17367 -20.50889,35.49865 -41.01778,0 -20.50889,-35.49865 20.50889,-35.49867 41.01778,0 z m 0,-72.25681 -20.50889,35.49867 -41.01778,0 -20.50889,-35.49867 20.50889,-35.49866 41.01778,0 z m 0,-72.17367 -20.50889,35.49865 -41.01778,0 -20.50889,-35.49865 20.50889,-35.49867 41.01778,0 z m 0,-72.25681 -20.50889,35.49868 -41.01778,0 -20.50889,-35.49868 20.50889,-35.49866 41.01778,0 z m 0,-72.17367 -20.50889,35.49866 -41.01778,0 -20.50889,-35.49866 20.50889,-35.498664 41.01778,0 z m 0,-72.256801 -20.50889,35.498671 -41.01778,0 -20.50889,-35.498671 20.50889,-35.4986665 41.01778,0 z m 62.54626,36.128398 -20.50889,35.498673 -41.01779,0 -20.50889,-35.498673 20.50889,-35.498672 41.01779,0 z m -125.09161,866.499743 -20.50888,35.49867 -41.0178,0 -20.50889,-35.49867 20.50889,-35.49867 41.0178,0 z m 0,144.43053 -20.50888,35.4986 -41.0178,0 -20.50889,-35.4986 20.50889,-35.4987 41.0178,0 z m 0,-72.2569 -20.50888,35.4987 -41.0178,0 -20.50889,-35.4987 20.50889,-35.49862 41.0178,0 z m -62.54625,36.1284 -20.50889,35.4987 -41.01779,0 -20.5089,-35.4987 20.5089,-35.4986 41.01779,0 z m 0,-72.17363 -20.50889,35.49863 -41.01779,0 -20.5089,-35.49863 20.5089,-35.49867 41.01779,0 z m 62.54625,-397.16303 -20.50888,35.49867 -41.0178,0 -20.50889,-35.49867 20.50889,-35.49867 41.0178,0 z m 0,288.86096 -20.50888,35.49864 -41.0178,0 -20.50889,-35.49864 20.50889,-35.49868 41.0178,0 z m 0,-72.25681 -20.50888,35.49867 -41.0178,0 -20.50889,-35.49867 20.50889,-35.49867 41.0178,0 z m 0,-72.17368 -20.50888,35.49866 -41.0178,0 -20.50889,-35.49866 20.50889,-35.49867 41.0178,0 z m 0,-72.2568 -20.50888,35.49868 -41.0178,0 -20.50889,-35.49868 20.50889,-35.49867 41.0178,0 z m -62.54625,252.81568 -20.50889,35.49865 -41.01779,0 -20.5089,-35.49865 20.5089,-35.49867 41.01779,0 z m 0,-72.2568 -20.50889,35.49867 -41.01779,0 -20.5089,-35.49867 20.5089,-35.49866 41.01779,0 z m 0,-72.17368 -20.50889,35.49866 -41.01779,0 -20.5089,-35.49866 20.5089,-35.49867 41.01779,0 z m 0,-72.2568 -20.50889,35.49867 -41.01779,0 -20.5089,-35.49867 20.5089,-35.49866 41.01779,0 z m 0,-72.17367 -20.50889,35.49866 -41.01779,0 -20.5089,-35.49866 20.5089,-35.49867 41.01779,0 z m 62.54625,-108.30209 -20.50888,35.49866 -41.0178,0 -20.50889,-35.49866 20.50889,-35.49867 41.0178,0 z m 0,-72.2568 -20.50888,35.49868 -41.0178,0 -20.50889,-35.49868 20.50889,-35.49867 41.0178,0 z m 0,-72.17366 -20.50888,35.49866 -41.0178,0 -20.50889,-35.49866 20.50889,-35.49867 41.0178,0 z m 0,-72.2568 -20.50888,35.49867 -41.0178,0 -20.50889,-35.49867 20.50889,-35.49867 41.0178,0 z m -62.54625,252.81567 -20.50889,35.49866 -41.01779,0 -20.5089,-35.49866 20.5089,-35.49867 41.01779,0 z m 0,-72.2568 -20.50889,35.49866 -41.01779,0 -20.5089,-35.49866 20.5089,-35.49867 41.01779,0 z m 0,-72.17367 -20.50889,35.49865 -41.01779,0 -20.5089,-35.49865 20.5089,-35.49867 41.01779,0 z m 0,-72.25681 -20.50889,35.49867 -41.01779,0 -20.5089,-35.49867 20.5089,-35.49866 41.01779,0 z m 0,-72.17367 -20.50889,35.49865 -41.01779,0 -20.5089,-35.49865 20.5089,-35.49867 41.01779,0 z m 0,-72.25681 -20.50889,35.49868 -41.01779,0 -20.5089,-35.49868 20.5089,-35.49866 41.01779,0 z m 0,-72.17367 -20.50889,35.49866 -41.01779,0 -20.5089,-35.49866 20.5089,-35.498664 41.01779,0 z m 0,-72.256801 -20.50889,35.498671 -41.01779,0 -20.5089,-35.498671 20.5089,-35.4986665 41.01779,0 z m 62.54625,36.128398 -20.50888,35.498673 -41.0178,0 -20.50889,-35.498673 20.50889,-35.498672 41.0178,0 z M 235.8808,936.46107 l -20.50889,35.49867 -41.01779,0 -20.50889,-35.49867 20.50889,-35.49867 41.01779,0 z m 0,144.43053 -20.50889,35.4986 -41.01779,0 -20.50889,-35.4986 20.50889,-35.4987 41.01779,0 z m 0,-72.2569 -20.50889,35.4987 -41.01779,0 -20.50889,-35.4987 20.50889,-35.49862 41.01779,0 z m -62.54626,36.1284 -20.50889,35.4987 -41.01777,0 -20.508899,-35.4987 20.508899,-35.4986 41.01777,0 z m 0,-72.17363 -20.50889,35.49863 -41.01777,0 -20.508899,-35.49863 20.508899,-35.49867 41.01777,0 z m 62.54626,-397.16303 -20.50889,35.49867 -41.01779,0 -20.50889,-35.49867 20.50889,-35.49867 41.01779,0 z m 0,288.86096 -20.50889,35.49864 -41.01779,0 -20.50889,-35.49864 20.50889,-35.49868 41.01779,0 z m 0,-72.25681 -20.50889,35.49867 -41.01779,0 -20.50889,-35.49867 20.50889,-35.49867 41.01779,0 z m 0,-72.17368 -20.50889,35.49866 -41.01779,0 -20.50889,-35.49866 20.50889,-35.49867 41.01779,0 z m 0,-72.2568 -20.50889,35.49868 -41.01779,0 -20.50889,-35.49868 20.50889,-35.49867 41.01779,0 z m -62.54626,252.81568 -20.50889,35.49865 -41.01777,0 -20.508899,-35.49865 20.508899,-35.49867 41.01777,0 z m 0,-72.2568 -20.50889,35.49867 -41.01777,0 -20.508899,-35.49867 20.508899,-35.49866 41.01777,0 z m 0,-72.17368 -20.50889,35.49866 -41.01777,0 -20.508899,-35.49866 20.508899,-35.49867 41.01777,0 z m 0,-72.2568 -20.50889,35.49867 -41.01777,0 -20.508899,-35.49867 20.508899,-35.49866 41.01777,0 z m 0,-72.17367 -20.50889,35.49866 -41.01777,0 -20.508899,-35.49866 20.508899,-35.49867 41.01777,0 z m 62.54626,-108.30209 -20.50889,35.49866 -41.01779,0 -20.50889,-35.49866 20.50889,-35.49867 41.01779,0 z m 0,-72.2568 -20.50889,35.49868 -41.01779,0 -20.50889,-35.49868 20.50889,-35.49867 41.01779,0 z m 0,-72.17366 -20.50889,35.49866 -41.01779,0 -20.50889,-35.49866 20.50889,-35.49867 41.01779,0 z m 0,-72.2568 -20.50889,35.49867 -41.01779,0 -20.50889,-35.49867 20.50889,-35.49867 41.01779,0 z m -62.54626,252.81567 -20.50889,35.49866 -41.01777,0 -20.508899,-35.49866 20.508899,-35.49867 41.01777,0 z m 0,-72.2568 -20.50889,35.49866 -41.01777,0 -20.508899,-35.49866 20.508899,-35.49867 41.01777,0 z m 0,-72.17367 -20.50889,35.49865 -41.01777,0 -20.508899,-35.49865 20.508899,-35.49867 41.01777,0 z m 0,-72.25681 -20.50889,35.49867 -41.01777,0 -20.508899,-35.49867 20.508899,-35.49866 41.01777,0 z m 0,-72.17367 -20.50889,35.49865 -41.01777,0 -20.508899,-35.49865 20.508899,-35.49867 41.01777,0 z m 0,-72.25681 -20.50889,35.49868 -41.01777,0 -20.508899,-35.49868 20.508899,-35.49866 41.01777,0 z m 0,-72.17367 -20.50889,35.49866 -41.01777,0 -20.508899,-35.49866 20.508899,-35.498664 41.01777,0 z m 0,-72.256801 -20.50889,35.498671 -41.01777,0 -20.508899,-35.498671 20.508899,-35.4986665 41.01777,0 z M 235.8808,69.961327 215.37191,105.46 l -41.01779,0 -20.50889,-35.498673 20.50889,-35.498672 41.01779,0 z m -125.09161,866.499743 -20.508879,35.49867 -41.01779,0 -20.508899,-35.49867 20.508899,-35.49867 41.01779,0 z m 0,144.43053 -20.508879,35.4986 -41.01779,0 -20.508899,-35.4986 20.508899,-35.4987 41.01779,0 z m 0,-72.2569 -20.508879,35.4987 -41.01779,0 -20.508899,-35.4987 20.508899,-35.49862 41.01779,0 z m -62.546249,36.1284 -20.508893,35.4987 -41.017789,0 -20.508895,-35.4987 20.508895,-35.4986 41.017789,0 z m 0,-72.17363 -20.508893,35.49863 -41.017789,0 -20.508895,-35.49863 20.508895,-35.49867 41.017789,0 z m 62.546249,-397.16303 -20.508879,35.49867 -41.01779,0 -20.508899,-35.49867 20.508899,-35.49867 41.01779,0 z m 0,288.86096 -20.508879,35.49864 -41.01779,0 -20.508899,-35.49864 20.508899,-35.49868 41.01779,0 z m 0,-72.25681 -20.508879,35.49867 -41.01779,0 -20.508899,-35.49867 20.508899,-35.49867 41.01779,0 z m 0,-72.17368 -20.508879,35.49866 -41.01779,0 -20.508899,-35.49866 20.508899,-35.49867 41.01779,0 z m 0,-72.2568 -20.508879,35.49868 -41.01779,0 -20.508899,-35.49868 20.508899,-35.49867 41.01779,0 z m -62.546249,252.81568 -20.508893,35.49865 -41.017789,0 -20.508895,-35.49865 20.508895,-35.49867 41.017789,0 z m 0,-72.2568 -20.508893,35.49867 -41.017789,0 -20.508895,-35.49867 20.508895,-35.49866 41.017789,0 z m 0,-72.17368 -20.508893,35.49866 -41.017789,0 -20.508895,-35.49866 20.508895,-35.49867 41.017789,0 z m 0,-72.2568 -20.508893,35.49867 -41.017789,0 -20.508895,-35.49867 20.508895,-35.49866 41.017789,0 z m 0,-72.17367 -20.508893,35.49866 -41.017789,0 -20.508895,-35.49866 20.508895,-35.49867 41.017789,0 z m 62.546249,-108.30209 -20.508879,35.49866 -41.01779,0 -20.508899,-35.49866 20.508899,-35.49867 41.01779,0 z m 0,-72.2568 -20.508879,35.49868 -41.01779,0 -20.508899,-35.49868 20.508899,-35.49867 41.01779,0 z m 0,-72.17366 -20.508879,35.49866 -41.01779,0 -20.508899,-35.49866 20.508899,-35.49867 41.01779,0 z m 0,-72.2568 -20.508879,35.49867 -41.01779,0 -20.508899,-35.49867 20.508899,-35.49867 41.01779,0 z m -62.546249,252.81567 -20.508893,35.49866 -41.017789,0 -20.508895,-35.49866 20.508895,-35.49867 41.017789,0 z m 0,-72.2568 -20.508893,35.49866 -41.017789,0 -20.508895,-35.49866 20.508895,-35.49867 41.017789,0 z m 0,-72.17367 -20.508893,35.49865 -41.017789,0 -20.508895,-35.49865 20.508895,-35.49867 41.017789,0 z m 0,-72.25681 -20.508893,35.49867 -41.017789,0 -20.508895,-35.49867 20.508895,-35.49866 41.017789,0 z m 0,-72.17367 -20.508893,35.49865 -41.017789,0 -20.508895,-35.49865 20.508895,-35.49867 41.017789,0 z m 0,-72.25681 -20.508893,35.49868 -41.017789,0 -20.508895,-35.49868 20.508895,-35.49866 41.017789,0 z m 0,-72.17367 -20.508893,35.49866 -41.017789,0 -20.508895,-35.49866 20.508895,-35.498664 41.017789,0 z m 0,-72.256801 -20.508893,35.498671 -41.017789,0 -20.508895,-35.498671 20.508895,-35.4986665 41.017789,0 z M 110.78919,69.961327 90.280311,105.46 l -41.01779,0 -20.508899,-35.498673 20.508899,-35.498672 41.01779,0 z m 250.18323,0 -20.50888,35.498673 -41.0178,0 -20.50889,-35.498673 20.50889,-35.498672 41.0178,0 z m -62.54625,36.128403 -20.50889,35.49866 -41.01779,0 -20.50888,-35.49866 20.50888,-35.498664 41.01779,0 z m 0,-72.256801 -20.50889,35.498671 -41.01779,0 -20.50888,-35.498671 20.50888,-35.4986665 41.01779,0 z m 4.3e-4,144.430471 -20.50889,35.49868 -41.01777,0 -20.5089,-35.49868 20.5089,-35.49866 41.01777,0 z m -62.54623,36.1284 -20.50889,35.49866 -41.0178,0 -20.5089,-35.49866 20.5089,-35.49867 41.0178,0 z m 0,-72.2568 -20.50889,35.49868 -41.0178,0 -20.5089,-35.49868 20.5089,-35.49866 41.0178,0 z m -62.54537,36.1284 -20.50889,35.49868 -41.01779,0 -20.508899,-35.49868 20.508899,-35.49866 41.01779,0 z m -62.54626,36.1284 -20.508889,35.49866 -41.01779,0 -20.50888,-35.49866 20.50888,-35.49867 41.01779,0 z m 0,-72.2568 -20.508889,35.49868 -41.01779,0 -20.50888,-35.49868 20.50888,-35.49866 41.01779,0 z M 235.8808,69.961327 215.37191,105.46 l -41.01779,0 -20.50889,-35.498673 20.50889,-35.498672 41.01779,0 z m -62.54624,36.128403 -20.5089,35.49866 -41.01778,0 -20.508899,-35.49866 20.508899,-35.498664 41.01778,0 z m 0,-72.256801 -20.5089,35.498671 -41.01778,0 -20.508899,-35.498671 20.508899,-35.4986665 41.01778,0 z m 500.3669,144.430471 -20.5089,35.49868 -41.01778,0 -20.5089,-35.49868 20.5089,-35.49866 41.01778,0 z m -62.54625,36.1284 -20.50889,35.49866 -41.01779,0 -20.50889,-35.49866 20.50889,-35.49867 41.01779,0 z m 0,-72.2568 -20.50889,35.49868 -41.01779,0 -20.50889,-35.49868 20.50889,-35.49866 41.01779,0 z m -62.54537,36.1284 -20.50889,35.49868 -41.01779,0 -20.50889,-35.49868 20.50889,-35.49866 41.01779,0 z m -62.54624,36.1284 -20.5089,35.49866 -41.0178,0 -20.50889,-35.49866 20.50889,-35.49867 41.0178,0 z m 0,-72.2568 -20.5089,35.49868 -41.0178,0 -20.50889,-35.49868 20.50889,-35.49866 41.0178,0 z M 611.15564,69.961327 590.64675,105.46 l -41.01778,0 -20.5089,-35.498673 20.5089,-35.498672 41.01778,0 z m -62.54624,36.128403 -20.5089,35.49866 -41.01778,0 -20.50888,-35.49866 20.50888,-35.498664 41.01778,0 z m 0,-72.256801 -20.5089,35.498671 -41.01778,0 -20.50888,-35.498671 20.50888,-35.4986665 41.01778,0 z m 4.4e-4,144.430471 -20.50889,35.49868 -41.01779,0 -20.50889,-35.49868 20.50889,-35.49866 41.01779,0 z m -62.54624,36.12842 -20.5089,35.49866 -41.0178,0 -20.50889,-35.49866 20.50889,-35.49868 41.0178,0 z m 0,-72.2568 -20.5089,35.49867 -41.0178,0 -20.50889,-35.49867 20.50889,-35.49868 41.0178,0 z m -62.54537,36.12838 -20.50889,35.49868 -41.01778,0 -20.50889,-35.49868 20.50889,-35.49866 41.01778,0 z m -62.54625,36.12842 -20.50889,35.49866 -41.01779,0 -20.50889,-35.49866 20.50889,-35.49868 41.01779,0 z m 0,-72.2568 -20.50889,35.49867 -41.01779,0 -20.50889,-35.49867 20.50889,-35.49868 41.01779,0 z M 486.06403,69.961327 465.55514,105.46 l -41.01779,0 -20.50889,-35.498673 20.50889,-35.498672 41.01779,0 z m -62.54626,36.128403 -20.50889,35.49866 -41.01778,0 -20.50889,-35.49866 20.50889,-35.498664 41.01778,0 z m 0,-72.256801 -20.50889,35.498671 -41.01778,0 -20.50889,-35.498671 20.50889,-35.4986665 41.01778,0 z"
       inkscape:connector-curvature="0" />
  </g>
</svg>
